<svg width="77" height="73" viewBox="0 0 77 73" fill="none" xmlns="http://www.w3.org/2000/svg">
<path d="M0 3C0 1.89543 0.895431 1 2 1H52C65.8071 1 77 12.1929 77 26V70C77 71.1046 76.1046 72 75 72H25C11.1929 72 0 60.8071 0 47V3Z" fill="white"/>
<path d="M64.3174 65.0734L14.5338 40.8697C12.645 39.9514 12.645 37.2603 14.5338 36.342L64.3174 12.1383C65.9894 11.3254 67.9353 12.5431 67.9353 14.4022V62.8096C67.9353 64.6686 65.9894 65.8863 64.3174 65.0734Z" fill="#2B8A3E" fill-opacity="0.62"/>
<path d="M11.5532 60.8312L61.3369 36.6275C63.2257 35.7092 63.2256 33.0181 61.3369 32.0998L11.5532 7.89611C9.88129 7.08326 7.93533 8.30091 7.93533 10.16V58.5674C7.93533 60.4264 9.88129 61.6441 11.5532 60.8312Z" fill="#1C7ED6" fill-opacity="0.62"/>
</svg>
